# xmcd
#
# Track frame offsets:
#	150
#	17842
#	35462
#	51120
#	65735
#	82807
#	96279
#	114965
#	134465
#	152290
#
# Disc length: 2259 seconds
#
# Revision: 1
# Processed by: cddbd v1.5.1PL0 Copyright (c) Steve Scherf et al.
# Submitted via: audiograbber 1.83.01
#
DISCID=7608d10a
DTITLE=Joshua Crow - Promises From Heaven
DYEAR=1997
DGENRE=Country
TTITLE0=He's Building A City
TTITLE1=Promises From Heaven
TTITLE2=When Roses Bloom
TTITLE3=So Glad
TTITLE4=Till Death Do Us Part
TTITLE5=Daddy Always Knew
TTITLE6=Forgive and Forget
TTITLE7=Do You Remember
TTITLE8=Right By My Side
TTITLE9=Friends In High Places
EXTD=
EXTT0=
EXTT1=
EXTT2=
EXTT3=
EXTT4=
EXTT5=
EXTT6=
EXTT7=
EXTT8=
EXTT9=
PLAYORDER=
